<svg xmlns="http://www.w3.org/2000/svg" width="1280" height="720" viewBox="0 0 960 720" role="img" aria-labelledby="level-01-title level-01-desc">
  <title id="level-01-title">The Read Receipt</title>
  <desc id="level-01-desc">Cinematic illustrated scene for hostel room at dusk with phone glow, expressing a anxious emotional state in a young adult Indian assessment context.</desc>
  <defs>
    <linearGradient id="bg" x1="0" y1="0" x2="1" y2="1">
      <stop offset="0" stop-color="#171528"/>
      <stop offset=".56" stop-color="#4d335f"/>
      <stop offset="1" stop-color="#d1848f"/>
    </linearGradient>
    <radialGradient id="light" cx=".68" cy=".24" r=".58">
      <stop offset="0" stop-color="#ffd7b5" stop-opacity=".55"/>
      <stop offset=".48" stop-color="#ffd7b5" stop-opacity=".12"/>
      <stop offset="1" stop-color="#171528" stop-opacity="0"/>
    </radialGradient>
    <filter id="softShadow" x="-20%" y="-20%" width="140%" height="150%">
      <feDropShadow dx="0" dy="22" stdDeviation="24" flood-color="#000" flood-opacity=".35"/>
    </filter>
    <pattern id="grain" width="4" height="4" patternUnits="userSpaceOnUse">
      <circle cx="1" cy="1" r=".65" fill="#fff" opacity=".08"/>
    </pattern>
  </defs>
  <rect width="960" height="720" fill="url(#bg)"/>
  <rect width="960" height="720" fill="url(#light)"/>
  <path d="M0 116 C168 92 246 157 394 120 C563 78 695 94 960 42 V0 H0 Z" fill="#fff" opacity=".05"/>
  <path d="M0 574 C180 520 322 586 480 544 C642 501 757 560 960 494 V720 H0 Z" fill="#05060a" opacity=".34"/>
  <rect x="600" y="116" width="184" height="245" rx="18" fill="#ffffff" opacity=".08"/><path d="M622 184 H762 M692 128 V344" stroke="#fff" stroke-opacity=".12" stroke-width="4"/><path d="M120 610 C300 565 590 560 840 610 L840 720 L120 720 Z" fill="#151823" opacity=".78"/>
    <g transform="translate(612 442) scale(1.15)">
      <rect x="-28" y="-52" width="56" height="104" rx="11" fill="#171923" stroke="#f7f0ff" stroke-opacity=".45"/>
      <rect x="-20" y="-37" width="40" height="70" rx="6" fill="#ffd7b5" opacity=".84"/>
      <circle cx="0" cy="42" r="3" fill="#fff" opacity=".65"/>
      <path d="M-12 -14 H14 M-12 2 H8 M-12 18 H15" stroke="#2b3040" stroke-width="3" stroke-linecap="round" opacity=".58"/>
    </g><g opacity=".84"><rect x="620" y="220" width="190" height="132" rx="24" fill="#fff" opacity=".13"/><path d="M652 262 H760 M652 296 H726" stroke="#fff" stroke-opacity=".42" stroke-width="8" stroke-linecap="round"/></g>
  <g filter="url(#softShadow)">
    
    <g transform="translate(360 520) scale(1.18) rotate(0)">
      <circle cx="0" cy="-62" r="22" fill="#b9826d"/>
      <path d="M-24 -36 C-18 -56 17 -56 25 -36 L34 46 C13 59 -16 59 -36 46 Z" fill="#2e3448"/>
      <path d="M-18 -80 C-6 -96 22 -88 28 -65 C14 -74 -1 -72 -19 -62 C-25 -68 -25 -74 -18 -80 Z" fill="#17151c"/>
      <path d="M-36 -20 C-70 2 -73 34 -51 49" fill="none" stroke="#b9826d" stroke-width="9" stroke-linecap="round"/>
      <path d="M32 -20 C62 -1 67 27 49 43" fill="none" stroke="#b9826d" stroke-width="9" stroke-linecap="round"/>
      <path d="M-22 46 L-34 104" stroke="#252839" stroke-width="12" stroke-linecap="round"/>
      <path d="M19 48 L31 105" stroke="#252839" stroke-width="12" stroke-linecap="round"/>
    </g>
    
    <g transform="translate(652 442) scale(0.92)">
      <rect x="-28" y="-52" width="56" height="104" rx="11" fill="#171923" stroke="#f7f0ff" stroke-opacity=".45"/>
      <rect x="-20" y="-37" width="40" height="70" rx="6" fill="#ffd7b5" opacity=".84"/>
      <circle cx="0" cy="42" r="3" fill="#fff" opacity=".65"/>
      <path d="M-12 -14 H14 M-12 2 H8 M-12 18 H15" stroke="#2b3040" stroke-width="3" stroke-linecap="round" opacity=".58"/>
    </g>
  </g>
  <g opacity=".34">
    <circle cx="204" cy="154" r="3" fill="#ffd7b5"/>
    <circle cx="716" cy="214" r="4" fill="#fff"/>
    <circle cx="749" cy="361" r="2.5" fill="#ffd7b5"/>
  </g>
  <rect width="960" height="720" fill="url(#grain)" opacity=".33"/>
  <rect width="960" height="720" fill="none" stroke="#fff" stroke-opacity=".08" stroke-width="2"/>
</svg>
