<svg xmlns="http://www.w3.org/2000/svg" width="1280" height="720" viewBox="0 0 960 720" role="img" aria-labelledby="level-21-title level-21-desc">
  <title id="level-21-title">Noticing a Classmate's Stress</title>
  <desc id="level-21-desc">Cinematic illustrated scene for library table with stressed classmate, expressing a observant emotional state in a young adult Indian assessment context.</desc>
  <defs>
    <linearGradient id="bg" x1="0" y1="0" x2="1" y2="1">
      <stop offset="0" stop-color="#11191b"/>
      <stop offset=".56" stop-color="#254046"/>
      <stop offset="1" stop-color="#6a8c86"/>
    </linearGradient>
    <radialGradient id="light" cx=".68" cy=".24" r=".58">
      <stop offset="0" stop-color="#d6eadc" stop-opacity=".55"/>
      <stop offset=".48" stop-color="#d6eadc" stop-opacity=".12"/>
      <stop offset="1" stop-color="#11191b" stop-opacity="0"/>
    </radialGradient>
    <filter id="softShadow" x="-20%" y="-20%" width="140%" height="150%">
      <feDropShadow dx="0" dy="22" stdDeviation="24" flood-color="#000" flood-opacity=".35"/>
    </filter>
    <pattern id="grain" width="4" height="4" patternUnits="userSpaceOnUse">
      <circle cx="1" cy="1" r=".65" fill="#fff" opacity=".08"/>
    </pattern>
  </defs>
  <rect width="960" height="720" fill="url(#bg)"/>
  <rect width="960" height="720" fill="url(#light)"/>
  <path d="M0 116 C168 92 246 157 394 120 C563 78 695 94 960 42 V0 H0 Z" fill="#fff" opacity=".05"/>
  <path d="M0 574 C180 520 322 586 480 544 C642 501 757 560 960 494 V720 H0 Z" fill="#05060a" opacity=".34"/>
  <rect x="600" y="116" width="184" height="245" rx="18" fill="#ffffff" opacity=".08"/><path d="M622 184 H762 M692 128 V344" stroke="#fff" stroke-opacity=".12" stroke-width="4"/><path d="M120 610 C300 565 590 560 840 610 L840 720 L120 720 Z" fill="#151823" opacity=".78"/>
  <g filter="url(#softShadow)">
    
    <g transform="translate(360 520) scale(1.18) rotate(5)">
      <circle cx="0" cy="-62" r="22" fill="#b9826d"/>
      <path d="M-24 -36 C-18 -56 17 -56 25 -36 L34 46 C13 59 -16 59 -36 46 Z" fill="#2e3448"/>
      <path d="M-18 -80 C-6 -96 22 -88 28 -65 C14 -74 -1 -72 -19 -62 C-25 -68 -25 -74 -18 -80 Z" fill="#17151c"/>
      <path d="M-36 -20 C-70 2 -73 34 -51 49" fill="none" stroke="#b9826d" stroke-width="9" stroke-linecap="round"/>
      <path d="M32 -20 C62 -1 67 27 49 43" fill="none" stroke="#b9826d" stroke-width="9" stroke-linecap="round"/>
      <path d="M-22 46 L-34 104" stroke="#252839" stroke-width="12" stroke-linecap="round"/>
      <path d="M19 48 L31 105" stroke="#252839" stroke-width="12" stroke-linecap="round"/>
    </g>
    
    <g transform="translate(510 534) scale(0.98) rotate(5)">
      <circle cx="0" cy="-62" r="22" fill="#9f6f5d"/>
      <path d="M-24 -36 C-18 -56 17 -56 25 -36 L34 46 C13 59 -16 59 -36 46 Z" fill="#394052"/>
      <path d="M-18 -80 C-6 -96 22 -88 28 -65 C14 -74 -1 -72 -19 -62 C-25 -68 -25 -74 -18 -80 Z" fill="#17151c"/>
      <path d="M-36 -20 C-70 2 -73 34 -51 49" fill="none" stroke="#9f6f5d" stroke-width="9" stroke-linecap="round"/>
      <path d="M32 -20 C62 -1 67 27 49 43" fill="none" stroke="#9f6f5d" stroke-width="9" stroke-linecap="round"/>
      <path d="M-22 46 L-34 104" stroke="#252839" stroke-width="12" stroke-linecap="round"/>
      <path d="M19 48 L31 105" stroke="#252839" stroke-width="12" stroke-linecap="round"/>
    </g>
  </g>
  <g opacity=".34">
    <circle cx="204" cy="154" r="3" fill="#d6eadc"/>
    <circle cx="668" cy="184" r="4" fill="#fff"/>
    <circle cx="749" cy="361" r="2.5" fill="#d6eadc"/>
  </g>
  <rect width="960" height="720" fill="url(#grain)" opacity=".33"/>
  <rect width="960" height="720" fill="none" stroke="#fff" stroke-opacity=".08" stroke-width="2"/>
</svg>
