<svg xmlns="http://www.w3.org/2000/svg" width="1280" height="720" viewBox="0 0 960 720" role="img" aria-labelledby="level-25-title level-25-desc">
  <title id="level-25-title">Quiet After Your Story</title>
  <desc id="level-25-desc">Cinematic illustrated scene for friends circle suddenly quiet, expressing a self-conscious emotional state in a young adult Indian assessment context.</desc>
  <defs>
    <linearGradient id="bg" x1="0" y1="0" x2="1" y2="1">
      <stop offset="0" stop-color="#15141d"/>
      <stop offset=".56" stop-color="#3d314f"/>
      <stop offset="1" stop-color="#936d89"/>
    </linearGradient>
    <radialGradient id="light" cx=".68" cy=".24" r=".58">
      <stop offset="0" stop-color="#ead0c3" stop-opacity=".55"/>
      <stop offset=".48" stop-color="#ead0c3" stop-opacity=".12"/>
      <stop offset="1" stop-color="#15141d" stop-opacity="0"/>
    </radialGradient>
    <filter id="softShadow" x="-20%" y="-20%" width="140%" height="150%">
      <feDropShadow dx="0" dy="22" stdDeviation="24" flood-color="#000" flood-opacity=".35"/>
    </filter>
    <pattern id="grain" width="4" height="4" patternUnits="userSpaceOnUse">
      <circle cx="1" cy="1" r=".65" fill="#fff" opacity=".08"/>
    </pattern>
  </defs>
  <rect width="960" height="720" fill="url(#bg)"/>
  <rect width="960" height="720" fill="url(#light)"/>
  <path d="M0 116 C168 92 246 157 394 120 C563 78 695 94 960 42 V0 H0 Z" fill="#fff" opacity=".05"/>
  <path d="M0 574 C180 520 322 586 480 544 C642 501 757 560 960 494 V720 H0 Z" fill="#05060a" opacity=".34"/>
  <path d="M72 516 C220 462 353 492 490 448 C635 401 757 441 888 381 L888 720 L72 720 Z" fill="#16202b" opacity=".72"/><path d="M96 500 C218 470 361 486 470 456" stroke="#e8d7bc" stroke-opacity=".24" stroke-width="4" fill="none"/><g opacity=".65"><path d="M818 560 C800 508 823 468 850 438 C860 493 852 530 818 560 Z" fill="#6c9270"/><path d="M840 566 C840 508 872 477 902 454 C898 513 876 548 840 566 Z" fill="#86a983"/><rect x="806" y="564" width="63" height="62" rx="10" fill="#332b31"/></g>
  <g filter="url(#softShadow)">
    
    <g transform="translate(360 520) scale(1.18) rotate(0)">
      <circle cx="0" cy="-62" r="22" fill="#b9826d"/>
      <path d="M-24 -36 C-18 -56 17 -56 25 -36 L34 46 C13 59 -16 59 -36 46 Z" fill="#2e3448"/>
      <path d="M-18 -80 C-6 -96 22 -88 28 -65 C14 -74 -1 -72 -19 -62 C-25 -68 -25 -74 -18 -80 Z" fill="#17151c"/>
      <path d="M-36 -20 C-70 2 -73 34 -51 49" fill="none" stroke="#b9826d" stroke-width="9" stroke-linecap="round"/>
      <path d="M32 -20 C62 -1 67 27 49 43" fill="none" stroke="#b9826d" stroke-width="9" stroke-linecap="round"/>
      <path d="M-22 46 L-34 104" stroke="#252839" stroke-width="12" stroke-linecap="round"/>
      <path d="M19 48 L31 105" stroke="#252839" stroke-width="12" stroke-linecap="round"/>
    </g>
    
    <g transform="translate(510 534) scale(0.98) rotate(5)">
      <circle cx="0" cy="-62" r="22" fill="#9f6f5d"/>
      <path d="M-24 -36 C-18 -56 17 -56 25 -36 L34 46 C13 59 -16 59 -36 46 Z" fill="#394052"/>
      <path d="M-18 -80 C-6 -96 22 -88 28 -65 C14 -74 -1 -72 -19 -62 C-25 -68 -25 -74 -18 -80 Z" fill="#17151c"/>
      <path d="M-36 -20 C-70 2 -73 34 -51 49" fill="none" stroke="#9f6f5d" stroke-width="9" stroke-linecap="round"/>
      <path d="M32 -20 C62 -1 67 27 49 43" fill="none" stroke="#9f6f5d" stroke-width="9" stroke-linecap="round"/>
      <path d="M-22 46 L-34 104" stroke="#252839" stroke-width="12" stroke-linecap="round"/>
      <path d="M19 48 L31 105" stroke="#252839" stroke-width="12" stroke-linecap="round"/>
    </g>
  </g>
  <g opacity=".34">
    <circle cx="170" cy="154" r="3" fill="#ead0c3"/>
    <circle cx="716" cy="214" r="4" fill="#fff"/>
    <circle cx="778" cy="361" r="2.5" fill="#ead0c3"/>
  </g>
  <rect width="960" height="720" fill="url(#grain)" opacity=".33"/>
  <rect width="960" height="720" fill="none" stroke="#fff" stroke-opacity=".08" stroke-width="2"/>
</svg>
